<svg xmlns="http://www.w3.org/2000/svg" xmlns:xlink="http://www.w3.org/1999/xlink" width="16" height="16" preserveAspectRatio="xMidYMid meet" viewBox="0 0 16 16" style="-ms-transform: rotate(360deg); -webkit-transform: rotate(360deg); transform: rotate(360deg);"><g fill="#626262"><path fill-rule="evenodd" d="M12.024 3.797L4.499 7.56l-.448-.895l7.525-3.762l.448.894zm-.448 9.3L4.051 9.335L4.5 8.44l7.525 3.763l-.448.894z"/><path fill-rule="evenodd" d="M13.5 5a2.5 2.5 0 1 0 0-5a2.5 2.5 0 0 0 0 5zm0 11a2.5 2.5 0 1 0 0-5a2.5 2.5 0 0 0 0 5zm-11-5.5a2.5 2.5 0 1 0 0-5a2.5 2.5 0 0 0 0 5z"/></g><rect x="0" y="0" width="16" height="16" fill="rgba(0, 0, 0, 0)" /></svg>