<?xml version="1.0" encoding="UTF-8" standalone="no"?>
<!-- Created with Serif DrawPlus 12,0,4,27 (May 24, 08:37:51) (http://www.serif.com) -->
<svg version="1.1" xmlns="http://www.w3.org/2000/svg" xmlns:xlink="http://www.w3.org/1999/xlink" width="816" height="1056">
	<g id="Layer_1">
		<path id="dp_path001" transform="matrix(1,0,0,1,-30.8413,816.781)" fill="black" stroke="black" stroke-width="2.66667" d="M 606.813,-717.451 C 589.064,-730.509 569.933,-738.787 549.517,-742.281 C 529.192,-745.685 508.131,-747.248 486.517,-746.696 L 441.361,-746.696 C 435.843,-753.779 430.324,-758.744 424.715,-761.504 C 419.012,-764.263 413.219,-765.643 407.148,-765.459 C 396.572,-765.091 385.812,-762.607 375.051,-758.192 C 364.291,-753.779 354.357,-749.915 345.437,-746.696 C 344.333,-747.248 343.229,-747.616 342.217,-747.708 C 341.299,-747.8 340.471,-747.892 339.919,-747.8 C 327.503,-746.604 314.811,-741.455 302.027,-732.625 C 289.152,-723.704 277.931,-718.645 268.275,-717.451 C 262.664,-717.267 258.065,-719.473 254.295,-723.98 C 250.524,-728.487 247.857,-736.028 246.201,-746.696 C 243.995,-747.8 242.063,-748.444 240.224,-748.628 C 238.476,-748.904 236.821,-748.996 235.165,-748.904 C 225.417,-748.26 216.772,-744.765 209.139,-738.511 C 201.413,-732.349 193.596,-727.475 185.503,-724.072 C 183.387,-726.647 181.916,-728.671 181.272,-730.049 C 180.628,-731.521 180.536,-733.545 181.088,-736.12 L 144.116,-735.66 C 140.713,-722.876 133.908,-714.507 123.883,-710.644 C 113.859,-706.781 103.557,-703.011 92.9813,-699.424 C 82.312,-695.837 74.3107,-688.204 69.0693,-676.432 C 68.7933,-672.937 71.552,-667.419 77.3467,-659.693 C 83.14,-651.968 93.6253,-649.485 108.8,-652.152 C 113.031,-638.816 119.008,-627.596 126.825,-618.399 C 134.643,-609.295 144.3,-602.488 155.888,-597.981 C 142.368,-565.793 129.677,-531.212 117.629,-494.148 C 105.673,-457.085 99.3267,-418.917 98.4987,-379.463 C 98.4987,-369.531 99.0507,-359.413 100.155,-349.021 C 101.259,-338.628 102.913,-328.236 105.121,-317.66 C 112.387,-250.613 134.551,-194.144 171.523,-148.436 C 208.587,-102.727 253.376,-69.7107 305.799,-49.4773 C 319.685,-47.6373 333.94,-45.7987 348.564,-43.7747 C 363.187,-41.844 377.993,-40.74 392.985,-40.648 C 407.332,-40.556 421.588,-42.0267 435.567,-45.1547 C 449.547,-48.2813 462.881,-53.432 475.665,-60.5133 C 494.887,-31.6347 515.396,-3.768 537.193,23.1787 C 558.897,50.1253 582.165,77.992 606.997,106.779 L 587.04,117.816 L 585.936,135.381 C 585.845,137.681 586.212,139.98 587.04,142.279 C 587.776,144.579 589.248,146.325 591.455,147.521 C 594.857,149.361 597.433,152.856 599.088,158.281 C 600.744,163.616 604.055,166.651 609.205,167.387 C 610.308,167.387 611.412,167.295 612.7,167.111 C 613.895,166.835 615.367,166.191 617.023,165.18 C 621.621,167.295 625.392,166.651 628.519,163.248 C 631.553,159.845 636.244,150.924 642.497,136.485 C 651.971,146.233 662.823,154.051 674.963,160.213 C 687.103,166.283 699.427,172.077 711.751,177.32 C 714.141,176.86 718.74,176.768 725.639,176.952 C 732.536,177.136 737.503,177.32 740.445,177.32 C 746.607,177.596 751.757,176.308 755.896,173.457 C 760.035,170.697 762.241,164.904 762.333,156.351 C 763.161,154.143 755.804,139.52 740.537,112.573 C 725.179,85.6267 697.22,49.5747 656.569,4.50933 C 656.017,-8.91867 652.799,-21.1507 646.912,-32.0027 C 641.027,-42.8547 635.876,-54.1667 631.461,-66.0307 C 635.14,-69.8027 638.543,-73.9413 641.395,-78.4467 C 644.337,-83.0453 647.556,-85.5293 651.235,-85.8973 C 652.247,-85.988 653.167,-85.8973 653.901,-85.8053 C 654.637,-85.7133 655.557,-85.3453 656.569,-84.7933 C 681.033,-113.856 704.209,-144.297 726.189,-176.211 C 748.171,-208.032 766.196,-242.06 780.176,-278.112 C 794.247,-314.164 801.421,-352.976 801.88,-394.453 C 801.88,-403.927 801.421,-413.768 800.409,-424.068 C 799.489,-434.368 798.201,-444.761 796.547,-455.337 L 811.813,-467.201 C 791.58,-522.291 764.265,-570.667 729.868,-612.329 C 695.472,-653.991 654.453,-685.353 606.813,-706.413 Z M 199.941,-318.211 C 196.999,-323.913 194.423,-330.167 192.308,-336.697 C 190.192,-343.319 186.513,-348.929 181.364,-353.62 C 180.904,-351.872 180.536,-350.216 180.444,-348.561 C 180.352,-346.905 180.26,-345.251 180.352,-343.595 C 181.824,-326.304 188.905,-310.117 201.597,-294.943 C 214.288,-279.86 223.577,-263.673 229.556,-246.291 C 236.177,-205.641 249.697,-173.636 269.931,-150.091 C 290.163,-126.639 313.524,-106.681 340.103,-90.4027 C 338.447,-88.748 337.344,-86.632 336.7,-84.0573 C 336.056,-81.4827 335.688,-78.8147 335.78,-76.056 C 335.78,-73.8493 335.964,-70.1693 336.148,-65.112 C 336.332,-60.0533 336.24,-56.6507 335.78,-54.9947 C 305.981,-60.6053 276.368,-74.308 246.937,-96.1053 C 217.508,-117.903 191.848,-145.493 169.868,-178.693 C 147.979,-211.987 133.356,-248.499 126.089,-288.321 C 121.768,-302.76 118.64,-317.384 116.709,-332.191 C 114.869,-346.997 113.859,-361.805 113.951,-376.796 C 114.685,-427.563 123.423,-475.847 140.345,-521.648 C 157.176,-567.448 177.777,-606.995 202.148,-640.196 C 230.291,-673.305 262.664,-699.056 299.36,-717.635 C 335.964,-736.12 376.339,-744.029 420.392,-741.363 L 430.324,-729.591 C 433.636,-729.039 436.855,-728.671 440.073,-728.579 C 443.292,-728.487 446.235,-728.395 449.087,-728.487 C 454.052,-728.671 464.169,-729.591 479.62,-731.245 C 495.071,-732.809 509.143,-733.729 521.835,-734.004 C 533.515,-734.096 544.919,-732.165 556.047,-728.027 C 567.175,-723.888 577.476,-716.715 586.948,-706.413 C 585.017,-693.539 579.683,-681.767 571.037,-670.821 C 562.3,-659.969 556.139,-647.553 552.46,-633.575 C 553.012,-630.355 553.472,-627.044 553.931,-623.733 C 554.391,-620.331 554.575,-616.836 554.667,-613.157 C 554.115,-596.235 550.712,-580.048 544.551,-564.505 C 538.296,-549.055 532.503,-532.316 526.984,-514.381 C 501.417,-528.821 474.285,-538.017 445.592,-541.88 C 416.805,-545.652 387.191,-546.847 356.657,-545.284 C 350.127,-549.699 343.597,-554.572 337.068,-559.907 C 330.537,-565.241 323.456,-568.184 315.731,-568.644 C 313.524,-568.736 311.132,-568.368 308.465,-567.54 C 305.799,-566.804 303.039,-565.241 300.28,-563.125 C 305.431,-557.883 311.224,-554.388 317.571,-552.549 C 323.916,-550.617 329.985,-548.227 335.688,-545.284 C 334.86,-534.983 329.895,-528.269 320.789,-525.327 C 311.592,-522.291 303.315,-518.612 295.865,-514.381 C 282.897,-496.632 270.113,-478.605 257.607,-460.304 C 245.007,-442.093 230.935,-424.528 215.208,-407.881 Z M 646.912,-639.092 C 646.36,-637.437 645.9,-635.781 645.441,-634.125 C 644.981,-632.471 644.797,-630.815 644.797,-629.16 C 645.165,-621.343 648.752,-616.56 655.465,-614.812 C 662.179,-613.157 669.721,-611.593 677.905,-610.305 C 686.091,-609.111 692.621,-605.156 697.404,-598.717 C 716.625,-598.073 731.524,-591.452 742.192,-578.668 C 752.861,-565.976 761.415,-550.801 767.852,-533.328 C 774.197,-515.761 780.544,-499.575 786.797,-484.584 L 783.487,-484.584 C 765.185,-483.664 748.999,-477.043 735.019,-464.535 C 720.948,-452.027 706.784,-439.243 692.529,-426.091 C 678.273,-413.032 661.536,-405.123 642.405,-402.363 L 642.405,-407.881 C 641.303,-428.759 633.393,-446.324 618.677,-460.672 C 603.963,-474.927 589.248,-488.263 574.624,-500.587 C 559.909,-512.819 552,-526.337 550.804,-541.145 C 550.712,-546.663 552.276,-552.825 555.495,-559.447 C 558.713,-566.068 564.14,-573.335 571.773,-581.06 C 570.209,-584.555 569.015,-588.233 568.371,-592.188 C 567.727,-596.143 567.359,-599.821 567.359,-603.224 C 568.003,-620.331 572.601,-636.793 581.063,-652.612 C 589.524,-668.339 598.26,-681.857 607.181,-693.171 L 685.264,-629.16 C 684.16,-629.16 682.596,-628.976 680.481,-628.608 C 678.365,-628.332 675.975,-628.148 673.124,-628.056 C 669.629,-627.964 666.225,-628.7 662.823,-630.263 C 659.42,-631.827 657.397,-634.769 656.569,-639.092 Z M 595.869,-132.249 C 623.184,-158 643.141,-189.731 655.557,-227.437 C 668.065,-265.145 674.227,-303.864 674.043,-343.411 C 674.043,-350.124 673.768,-356.931 673.308,-363.736 C 672.94,-370.633 672.388,-377.164 671.836,-383.325 C 690.781,-401.995 709.268,-417.997 727.293,-431.333 C 745.32,-444.669 765.185,-452.671 786.889,-455.337 C 787.993,-448.164 788.637,-441.175 788.913,-434.276 C 789.097,-427.379 789.189,-420.389 789.189,-413.216 C 787.809,-344.791 771.991,-283.171 741.549,-228.357 C 711.199,-173.636 674.411,-127.559 631.093,-90.2187 C 629.439,-89.76 627.783,-89.392 626.219,-89.3 C 624.748,-89.208 623.368,-89.116 622.264,-89.116 C 615.827,-89.208 610.584,-91.3227 606.629,-95.6453 C 602.583,-99.968 598.996,-106.313 595.869,-114.591 Z M 650.867,-377.716 C 653.627,-367.783 655.557,-358.033 656.753,-348.561 C 658.04,-338.996 658.592,-329.524 658.592,-320.143 C 658.224,-286.941 651.511,-255.856 638.543,-227.161 C 625.484,-198.467 608.285,-172.624 587.04,-149.816 C 580.695,-149.999 576.556,-149.724 574.716,-149.172 C 572.969,-148.62 571.865,-146.964 571.589,-144.389 C 556.231,-150.551 544.735,-163.979 537.285,-184.856 C 529.744,-205.641 521.283,-225.691 511.717,-244.912 C 502.244,-264.225 486.885,-274.525 465.641,-275.813 L 460.123,-275.813 C 444.028,-263.029 430.6,-247.763 419.656,-230.012 C 408.804,-212.263 404.481,-190.097 406.596,-163.427 L 430.232,-120.293 C 429.221,-121.029 428.117,-121.029 426.921,-120.477 C 425.727,-119.925 423.519,-117.993 420.392,-114.775 L 420.392,-97.1173 C 382.132,-99.324 350.127,-107.693 324.192,-122.408 C 298.348,-137.124 275.908,-161.772 257.055,-196.536 C 253.652,-221.46 247.029,-245.74 237.189,-269.376 C 227.44,-292.92 221.923,-318.303 220.635,-345.527 C 220.635,-350.492 220.911,-355.643 221.463,-361.069 C 222.013,-366.495 222.841,-372.013 223.945,-377.532 C 235.625,-395.741 248.041,-415.607 261.193,-437.128 C 274.344,-458.556 288.6,-477.961 304.051,-495.252 C 319.501,-512.543 336.608,-524.039 355.277,-529.833 C 384.708,-530.016 414.321,-528.269 444.304,-524.591 C 474.285,-520.912 503.348,-507.576 531.675,-484.584 C 532.779,-488.907 534.157,-492.033 535.721,-493.964 C 537.193,-495.804 538.848,-496.724 540.504,-496.724 C 544.919,-496.172 549.333,-494.148 553.656,-490.653 C 557.885,-487.067 562.024,-485.044 565.887,-484.584 C 583.361,-467.845 597.801,-449.084 609.113,-428.299 C 620.333,-407.421 632.841,-388.66 646.452,-372.013 Z M 650.867,28.4213 C 667.697,49.7587 685.356,70.2667 703.749,89.9493 C 722.143,109.539 736.215,132.807 745.963,159.661 C 742.56,160.765 739.065,161.593 735.387,162.144 C 731.8,162.696 728.305,162.972 724.903,162.972 C 700.439,161.501 678.365,151.384 658.868,132.715 C 639.371,114.044 620.149,95.4667 601.204,76.9813 C 578.211,45.712 557.151,18.488 538.02,-4.872 C 518.891,-28.232 500.589,-51.96 483.207,-76.148 C 465.825,-100.336 448.167,-129.399 430.324,-163.151 C 428.209,-167.013 426.737,-170.876 425.909,-174.923 C 425.175,-178.877 424.807,-183.108 424.807,-187.431 C 425.451,-202.053 429.681,-215.573 437.499,-227.989 C 445.316,-240.497 452.857,-250.981 460.123,-259.443 C 477.689,-256.96 490.104,-247.579 497.555,-231.3 C 504.912,-215.113 511.901,-197.824 518.523,-179.429 C 525.237,-161.128 536.273,-147.608 551.632,-138.963 C 542.895,-135.376 536.365,-129.031 532.319,-119.925 C 528.18,-110.82 526.156,-100.704 526.248,-89.392 C 526.248,-84.8853 526.708,-80.1027 527.72,-75.044 C 528.732,-69.9853 530.019,-65.204 531.767,-60.6973 C 545.929,-35.7733 560.645,-13.2413 575.912,6.9 C 591.179,26.9493 611.412,40.4693 636.612,47.1827 Z M 411.931,-54.9947 C 412.207,-58.8573 411.379,-64.928 409.54,-73.2053 C 407.792,-81.5747 403.377,-86.264 396.48,-87.184 C 392.709,-86.724 387.375,-84.4253 380.569,-80.4707 C 373.764,-76.424 367.233,-73.9413 360.796,-72.8373 L 356.473,-95.8293 C 373.12,-94.7253 388.939,-91.2307 403.929,-85.2533 C 418.828,-79.2747 432.9,-71.0893 446.143,-60.5133 C 444.488,-58.3973 442.28,-56.9267 439.521,-56.0987 C 436.763,-55.3627 433.452,-54.9947 429.589,-54.9947 Z M 361.164,-54.9947 C 365.395,-56.0987 369.349,-58.3053 372.844,-61.6173 C 376.431,-64.928 380.661,-66.8587 385.444,-67.3187 C 386.455,-67.3187 387.375,-67.2267 388.203,-67.1347 C 388.939,-67.0427 389.859,-66.6747 390.961,-66.2147 C 388.663,-61.3413 385.72,-58.2133 382.132,-56.8347 C 378.453,-55.4547 374.407,-54.9027 369.992,-54.9947 Z M 642.589,4.32533 C 621.988,-8.18267 604.883,-24.1853 591.087,-43.5907 C 577.292,-62.996 567.635,-86.632 562.024,-114.499 C 570.761,-111.096 577.476,-105.119 582.073,-96.6573 C 586.764,-88.196 591.731,-80.1947 597.065,-72.7453 C 602.399,-65.204 610.584,-61.2493 621.621,-60.7893 Z M 250.8,-711.84 C 240.776,-700.62 231.855,-690.043 224.037,-680.295 C 216.22,-670.453 206.747,-663.004 195.619,-657.763 C 192.308,-659.417 190.008,-661.073 188.721,-662.728 C 187.341,-664.384 186.697,-666.039 186.789,-667.695 C 187.157,-672.109 188.813,-676.524 191.756,-680.939 C 194.607,-685.353 196.263,-689.768 196.723,-694.181 C 196.815,-695.837 196.355,-697.585 195.435,-699.424 C 194.607,-701.356 192.768,-703.655 190.1,-706.321 C 198.285,-707.517 205.92,-712.116 213.001,-720.117 C 220.083,-728.211 227.164,-732.809 234.245,-734.004 C 237.005,-734.004 239.764,-732.257 242.523,-728.763 C 245.283,-725.176 248.041,-719.565 250.8,-711.84 Z M 84.52,-669.901 C 88.5667,-682.593 95.74,-689.768 106.224,-691.423 C 116.617,-693.079 126.089,-695.837 134.551,-699.7 L 139.885,-676.616 C 146.875,-668.431 154.692,-663.004 163.337,-660.337 C 171.983,-657.671 179.248,-650.588 185.135,-639.092 C 183.847,-632.747 180.536,-627.136 175.201,-622.261 C 169.776,-617.296 166.464,-611.133 165.269,-603.776 C 160.487,-608.191 156.164,-613.617 152.301,-619.871 C 148.347,-626.124 143.472,-629.62 137.679,-630.263 C 136.483,-630.171 135.195,-629.987 133.816,-629.528 C 132.344,-629.068 131.056,-628.608 129.953,-628.056 C 132.16,-633.575 133.264,-637.988 133.264,-641.3 C 132.252,-650.864 127.101,-656.751 117.721,-658.957 C 108.432,-661.073 101.075,-664.752 95.556,-669.993 Z M 181.272,-693.171 C 179.156,-690.503 175.753,-687.56 170.971,-684.341 C 166.188,-681.123 161.039,-680.387 155.336,-682.133 C 155.52,-686.64 157.084,-690.503 160.119,-693.723 C 163.245,-696.849 166.74,-698.504 170.787,-698.688 C 172.811,-698.688 174.741,-698.32 176.673,-697.585 C 178.604,-696.757 180.076,-695.285 181.272,-693.171 Z M 150.369,-723.888 L 170.235,-723.888 L 155.888,-711.748 Z M 466.56,-72.7453 C 461.043,-75.78 454.788,-78.9987 447.983,-82.2173 C 441.177,-85.4373 437.407,-90.0347 436.763,-95.9213 C 436.763,-97.5773 437.131,-99.692 437.775,-102.083 C 438.417,-104.475 439.613,-106.865 441.177,-109.165 C 443.108,-101.624 446.511,-95.0933 451.385,-89.668 C 456.352,-84.2413 461.411,-78.5387 466.56,-72.7453 Z M 540.596,-95.9213 C 548.045,-68.9747 560.553,-45.7987 578.027,-26.392 C 595.593,-6.89467 613.252,9.66 631.185,23.2707 C 610.584,17.5693 593.847,6.164 580.787,-11.0333 C 567.819,-28.232 556.231,-46.5333 546.113,-66.1227 Z M 621.253,147.981 C 615.091,150.004 609.757,149.085 605.251,145.407 C 600.744,141.728 597.617,136.669 595.869,130.323 C 596.881,130.231 597.801,129.864 598.628,129.22 C 599.364,128.576 600.284,128.208 601.388,128.116 C 605.619,128.576 609.205,130.507 612.148,134.093 C 614.999,137.681 618.033,140.44 621.253,142.463 Z "/>
	</g>
</svg>