<svg xmlns="http://www.w3.org/2000/svg" width="816" height="1056">
  <path stroke="#000" stroke-width="2.667" d="M575.972 99.33c-17.75-13.058-36.88-21.336-57.296-24.83a330.084 330.084 0 00-63-4.415H410.52c-5.518-7.083-11.037-12.048-16.646-14.808-5.703-2.759-11.496-4.139-17.567-3.955-10.576.368-21.336 2.852-32.097 7.267-10.76 4.413-20.694 8.277-29.614 11.496-1.104-.552-2.208-.92-3.22-1.012-.918-.092-1.746-.184-2.298-.092-12.416 1.196-25.108 6.345-37.892 15.175-12.875 8.921-24.096 13.98-33.752 15.174-5.611.184-10.21-2.022-13.98-6.529-3.771-4.507-6.438-12.048-8.094-22.716-2.206-1.104-4.138-1.748-5.977-1.932a23.67 23.67 0 00-5.06-.276c-9.747.644-18.392 4.139-26.025 10.393-7.726 6.162-15.543 11.036-23.636 14.439-2.116-2.575-3.587-4.599-4.231-5.977-.644-1.472-.736-3.496-.184-6.071l-36.972.46c-3.403 12.784-10.208 21.153-20.233 25.016-10.024 3.863-20.326 7.633-30.902 11.22-10.67 3.587-18.67 11.22-23.912 22.992-.276 3.495 2.483 9.013 8.277 16.739 5.794 7.725 16.279 10.208 31.454 7.541 4.23 13.336 10.208 24.556 18.025 33.753 7.818 9.104 17.475 15.911 29.063 20.418-13.52 32.188-26.211 66.769-38.26 103.833-11.955 37.063-18.302 75.231-19.13 114.685 0 9.932.552 20.05 1.657 30.442 1.104 10.393 2.758 20.785 4.966 31.361 7.266 67.047 29.43 123.516 66.402 169.224 37.064 45.709 81.853 78.725 134.276 98.959 13.886 1.84 28.14 3.678 42.765 5.702 14.623 1.931 29.429 3.035 44.42 3.127 14.348.092 28.604-1.379 42.583-4.507 13.98-3.126 27.314-8.277 40.098-15.358 19.222 28.878 39.73 56.745 61.528 83.692 21.704 26.946 44.972 54.813 69.804 83.6l-19.957 11.037-1.104 17.565c-.091 2.3.276 4.599 1.104 6.898.736 2.3 2.208 4.046 4.415 5.242 3.402 1.84 5.978 5.335 7.633 10.76 1.656 5.335 4.967 8.37 10.117 9.106 1.103 0 2.207-.092 3.495-.276 1.195-.276 2.667-.92 4.323-1.931 4.598 2.115 8.369 1.471 11.496-1.932 3.034-3.403 7.725-12.324 13.978-26.763 9.474 9.748 20.326 17.566 32.466 23.728 12.14 6.07 24.464 11.864 36.788 17.107 2.39-.46 6.989-.552 13.888-.368 6.897.184 11.864.368 14.806.368 6.162.276 11.312-1.012 15.45-3.863 4.14-2.76 6.346-8.553 6.438-17.106.828-2.208-6.53-16.831-21.796-43.778-15.358-26.946-43.317-62.998-83.968-108.064-.552-13.428-3.77-25.66-9.657-36.512a265.303 265.303 0 01-15.451-34.028c3.679-3.772 7.082-7.91 9.934-12.416 2.942-4.598 6.16-7.082 9.84-7.45 1.012-.091 1.932 0 2.666.092.736.092 1.656.46 2.668 1.012 24.464-29.063 47.64-59.504 69.62-91.418a491.418 491.418 0 0053.987-101.901c14.07-36.052 21.245-74.864 21.704-116.341 0-9.474-.46-19.315-1.471-29.615a476.444 476.444 0 00-3.862-31.269l15.266-11.864c-20.233-55.09-47.548-103.466-81.945-145.128-34.396-41.662-75.415-73.024-123.055-94.084zM169.1 498.57c-2.942-5.702-5.518-11.956-7.633-18.486-2.116-6.622-5.795-12.232-10.944-16.923-.46 1.748-.828 3.404-.92 5.059-.092 1.656-.184 3.31-.092 4.966 1.472 17.291 8.553 33.478 21.245 48.652 12.69 15.083 21.98 31.27 27.959 48.652 6.62 40.65 20.14 72.655 40.375 96.2 20.232 23.452 43.593 43.41 70.172 59.688-1.656 1.655-2.76 3.771-3.403 6.346-.644 2.574-1.012 5.242-.92 8.001 0 2.207.184 5.887.368 10.944.184 5.059.092 8.461-.368 10.117-29.8-5.61-59.412-19.313-88.843-41.11-29.43-21.798-55.09-49.388-77.07-82.588-21.888-33.294-36.511-69.806-43.778-109.628a278.339 278.339 0 01-9.38-43.87c-1.84-14.806-2.85-29.614-2.758-44.605.734-50.767 9.472-99.051 26.394-144.852 16.83-45.8 37.432-85.347 61.803-118.548 28.143-33.109 60.516-58.86 97.212-77.439 36.604-18.485 76.979-26.394 121.032-23.728l9.932 11.772c3.312.552 6.53.92 9.749 1.012 3.219.092 6.162.184 9.014.092 4.965-.184 15.082-1.104 30.533-2.758 15.45-1.564 29.523-2.484 42.215-2.759 11.68-.092 23.084 1.839 34.212 5.977 11.128 4.139 21.429 11.312 30.9 21.614-1.93 12.874-7.264 24.646-15.91 35.592-8.737 10.852-14.898 23.268-18.577 37.246.552 3.22 1.012 6.531 1.47 9.842.46 3.402.645 6.897.737 10.576-.552 16.922-3.955 33.109-10.116 48.652-6.255 15.45-12.048 32.189-17.567 50.124-25.567-14.44-52.7-23.636-81.392-27.499-28.787-3.772-58.401-4.967-88.935-3.404-6.53-4.415-13.06-9.288-19.59-14.623-6.53-5.334-13.611-8.277-21.336-8.737-2.207-.092-4.6.276-7.266 1.104-2.666.736-5.426 2.299-8.185 4.415 5.15 5.242 10.944 8.737 17.29 10.576 6.346 1.932 12.415 4.322 18.118 7.265-.828 10.301-5.793 17.015-14.9 19.957-9.196 3.036-17.473 6.715-24.923 10.946-12.968 17.749-25.752 35.776-38.258 54.077-12.6 18.211-26.672 35.776-42.4 52.423zm446.97-320.881c-.551 1.655-1.011 3.311-1.47 4.967-.46 1.654-.644 3.31-.644 4.965.368 7.817 3.955 12.6 10.668 14.348a268.53 268.53 0 0022.44 4.507c8.186 1.194 14.716 5.149 19.499 11.588 19.22.644 34.12 7.265 44.788 20.049 10.669 12.692 19.223 27.867 25.66 45.34a1074.594 1074.594 0 0018.945 48.744h-3.31c-18.302.92-34.488 7.541-48.468 20.049-14.071 12.508-28.235 25.292-42.49 38.444-14.256 13.059-30.993 20.968-50.124 23.728V408.9c-1.102-20.878-9.012-38.443-23.728-52.791-14.714-14.255-29.43-27.591-44.053-39.915-14.715-12.232-22.624-25.75-23.82-40.558-.092-5.518 1.472-11.68 4.69-18.302 3.219-6.621 8.646-13.888 16.279-21.613-1.564-3.495-2.758-7.173-3.402-11.128-.644-3.955-1.012-7.633-1.012-11.036.644-17.107 5.242-33.569 13.704-49.388 8.46-15.727 17.197-29.245 26.118-40.559l78.083 64.011c-1.104 0-2.668.184-4.783.552-2.116.276-4.506.46-7.357.552-3.495.092-6.9-.644-10.301-2.207-3.403-1.564-5.426-4.506-6.254-8.829zm-51.042 506.843c27.315-25.751 47.272-57.482 59.688-95.188 12.508-37.708 18.67-76.427 18.486-115.974 0-6.713-.275-13.52-.735-20.325-.368-6.897-.92-13.428-1.472-19.589 18.945-18.67 37.432-34.672 55.457-48.008 18.027-13.336 37.892-21.338 59.596-24.004a187.116 187.116 0 012.024 21.061c.184 6.897.276 13.887.276 21.06-1.38 68.425-17.198 130.045-47.64 184.859-30.35 54.721-67.138 100.798-110.456 138.138-1.654.459-3.31.827-4.874.919-1.471.092-2.851.184-3.955.184-6.437-.092-11.68-2.207-15.635-6.53-4.046-4.322-7.633-10.667-10.76-18.945zm54.998-245.467c2.76 9.933 4.69 19.683 5.886 29.155 1.287 9.565 1.839 19.037 1.839 28.418-.368 33.202-7.081 64.287-20.05 92.982-13.058 28.694-30.257 54.537-51.502 77.345-6.345-.183-10.484.092-12.324.644-1.747.552-2.851 2.208-3.127 4.783-15.358-6.162-26.854-19.59-34.304-40.467-7.541-20.785-16.002-40.835-25.568-60.056-9.473-19.313-24.832-29.613-46.076-30.901h-5.518c-16.095 12.784-29.523 28.05-40.467 45.801-10.852 17.749-15.175 39.915-13.06 66.585l23.636 43.134c-1.011-.736-2.115-.736-3.311-.184-1.194.552-3.402 2.484-6.53 5.702v17.658c-38.26-2.207-70.264-10.576-96.2-25.291-25.843-14.716-48.283-39.364-67.136-74.128-3.403-24.924-10.026-49.204-19.866-72.84-9.75-23.544-15.266-48.927-16.554-76.151 0-4.965.276-10.116.828-15.542a173.135 173.135 0 012.482-16.463c11.68-18.209 24.096-38.075 37.248-59.596 13.15-21.428 27.407-40.833 42.858-58.124 15.45-17.291 32.557-28.787 51.226-34.581 29.43-.183 59.044 1.564 89.027 5.242 29.98 3.679 59.044 17.015 87.37 40.007 1.105-4.323 2.483-7.449 4.047-9.38 1.472-1.84 3.127-2.76 4.783-2.76 4.415.552 8.829 2.576 13.152 6.071 4.229 3.586 8.368 5.609 12.23 6.069 17.475 16.739 31.915 35.5 43.227 56.285 11.22 20.878 23.728 39.639 37.339 56.286zm0 406.137a969.545 969.545 0 0052.882 61.528c18.394 19.59 32.466 42.858 42.214 69.712a65.539 65.539 0 01-10.576 2.483c-3.587.552-7.082.828-10.484.828-24.464-1.471-46.538-11.588-66.035-30.257a8569.208 8569.208 0 01-57.664-55.734c-22.993-31.269-44.053-58.493-63.184-81.853-19.13-23.36-37.431-47.088-54.813-71.276-17.382-24.188-35.04-53.251-52.883-87.003-2.115-3.862-3.587-7.725-4.415-11.772-.734-3.954-1.102-8.185-1.102-12.508.644-14.622 4.874-28.142 12.692-40.558 7.817-12.508 15.358-22.992 22.624-31.454 17.566 2.483 29.98 11.864 37.432 28.143 7.357 16.187 14.346 33.476 20.968 51.871 6.714 18.301 17.75 31.821 33.109 40.466-8.737 3.587-15.267 9.932-19.313 19.038-4.14 9.105-6.163 19.221-6.071 30.533 0 4.507.46 9.29 1.472 14.348 1.012 5.059 2.299 9.84 4.047 14.347 14.162 24.924 28.878 47.456 44.145 67.597 15.267 20.05 35.5 33.57 60.7 40.283zM381.09 761.786c.276-3.862-.552-9.933-2.391-18.21-1.748-8.37-6.163-13.059-13.06-13.979-3.771.46-9.105 2.759-15.911 6.713-6.805 4.047-13.336 6.53-19.773 7.634l-4.323-22.992c16.647 1.104 32.466 4.598 47.456 10.576 14.899 5.978 28.97 14.164 42.214 24.74-1.655 2.116-3.863 3.586-6.622 4.414-2.758.736-6.07 1.104-9.932 1.104zm-50.767 0c4.23-1.104 8.185-3.31 11.68-6.622 3.587-3.311 7.817-5.242 12.6-5.702 1.01 0 1.93.092 2.759.184.736.092 1.656.46 2.758.92-2.298 4.874-5.241 8.002-8.83 9.38-3.678 1.38-7.724 1.932-12.14 1.84zm281.425 59.32c-20.601-12.508-37.706-28.51-51.502-47.916-13.795-19.405-23.452-43.041-29.063-70.908 8.737 3.403 15.452 9.38 20.049 17.842 4.69 8.461 9.658 16.462 14.992 23.912 5.334 7.541 13.519 11.496 24.556 11.956zm-391.79-716.165c-10.023 11.22-18.944 21.797-26.762 31.545-7.817 9.842-17.29 17.291-28.418 22.532-3.311-1.654-5.611-3.31-6.898-4.965-1.38-1.656-2.024-3.311-1.932-4.967.368-4.414 2.024-8.829 4.967-13.244 2.85-4.414 4.507-8.829 4.967-13.242.092-1.656-.368-3.404-1.288-5.243-.828-1.932-2.667-4.231-5.335-6.897 8.185-1.196 15.82-5.795 22.9-13.796 7.083-8.094 14.164-12.692 21.245-13.887 2.76 0 5.519 1.747 8.278 5.241 2.76 3.587 5.518 9.198 8.277 16.923zM53.679 146.88c4.047-12.692 11.22-19.867 21.705-21.522 10.393-1.656 19.865-4.414 28.327-8.277l5.334 23.084c6.99 8.185 14.807 13.612 23.452 16.279 8.646 2.666 15.91 9.749 21.798 21.245-1.288 6.345-4.6 11.956-9.934 16.831-5.425 4.965-8.737 11.128-9.932 18.485-4.782-4.415-9.105-9.841-12.968-16.095-3.954-6.253-8.83-9.749-14.622-10.392-1.196.092-2.484.276-3.863.735-1.472.46-2.76.92-3.863 1.472 2.207-5.519 3.31-9.932 3.31-13.244-1.011-9.564-6.162-15.451-15.542-17.657-9.29-2.116-16.646-5.795-22.165-11.036zm96.753-23.27c-2.116 2.668-5.52 5.611-10.301 8.83-4.783 3.218-9.932 3.954-15.635 2.208.184-4.507 1.748-8.37 4.783-11.59 3.126-3.126 6.62-4.781 10.668-4.965 2.024 0 3.954.368 5.886 1.103 1.93.828 3.403 2.3 4.599 4.414zm-30.903-30.717h19.866l-14.347 12.14zm316.19 651.143a343.497 343.497 0 00-18.576-9.472c-6.806-3.22-10.576-7.818-11.22-13.704 0-1.656.368-3.771 1.012-6.162.642-2.392 1.838-4.782 3.402-7.082 1.93 7.541 5.334 14.072 10.208 19.497 4.967 5.427 10.026 11.13 15.175 16.923zm74.037-23.176c7.449 26.946 19.957 50.122 37.43 69.529 17.567 19.497 35.226 36.052 53.159 49.663-20.601-5.702-37.338-17.107-50.398-34.304-12.968-17.199-24.556-35.5-34.674-55.09zm80.657 243.902c-6.162 2.023-11.496 1.104-16.002-2.574-4.507-3.679-7.634-8.738-9.382-15.084a5.172 5.172 0 002.759-1.103c.736-.644 1.656-1.012 2.76-1.104 4.23.46 7.817 2.391 10.76 5.977 2.85 3.588 5.885 6.347 9.105 8.37z"/>
  <path d="M291.09 756.248c-56.767-16.504-110.96-59.652-150.213-119.598C118.89 603.073 108.542 577 95.48 522.282c-8.337-34.926-9.612-45.9-9.521-81.964.164-65.467 12.465-119.486 41.92-184.089 22.033-48.326 45.765-83.23 73.165-107.612C255.64 100.04 308.666 77.691 370.336 77.27l17.707-.122 5.291 6.1 5.291 6.099 10.088.555c5.549.305 22.672-.64 38.053-2.102 36.002-3.422 54.257-3.463 67.203-.152 12.088 3.091 24.763 9.63 33.524 17.294 5.757 5.036 6.535 6.265 5.83 9.208-2.198 9.176-6.615 18.103-15.686 31.7-5.467 8.196-11.512 18.619-13.432 23.162-3.619 8.56-3.773 10.183-3.14 33.04.46 16.634-2.54 31.105-11.33 54.642-4.045 10.833-8.94 24.558-10.877 30.498-1.937 5.941-3.683 10.993-3.88 11.227-.197.234-4.836-1.701-10.31-4.3-37.404-17.758-65.052-23.218-123.05-24.305l-35.582-.666-11.614-8.778c-15.428-11.66-21.44-14.258-31.503-13.618-5.578.356-9.014 1.348-11.981 3.46l-4.16 2.963 2.921 3.11c4.389 4.67 9.451 7.44 21.716 11.878 11.718 4.24 12.46 5.128 9.327 11.15-2.892 5.559-7.093 8.483-18.547 12.912-18.765 7.255-16.543 4.871-52.745 56.6-14.851 21.219-21.712 30.112-36.269 47.017l-10.943 12.708-6.867 40.873c-3.776 22.481-7.24 40.643-7.696 40.361-.457-.282-2.136-4.212-3.732-8.733-2.805-7.945-10.46-19.706-13.467-20.687-2.098-.685-3.41 8.733-2.372 17.036 1.9 15.214 9.448 31.578 21.354 46.298 16.11 19.918 25.017 37.64 29.46 58.618 6.186 29.215 15.35 52.534 28.288 71.98 13.066 19.64 43.858 49.048 69.869 66.73 8.42 5.723 9.033 6.436 7.64 8.894-.963 1.703-1.415 7.63-1.243 16.334.148 7.513.14 13.625-.02 13.583-.16-.043-5.722-1.657-12.362-3.588zM612.279 399.46c-3.168-19.38-9.445-30.742-26.27-47.545-7.395-7.385-18.878-18.174-25.518-23.976-31.505-27.53-37.523-36.12-37.443-53.437.052-11.317 3.007-18.028 13.474-30.606 6.342-7.62 6.53-8.068 5.006-11.857-.871-2.166-1.885-9.084-2.252-15.375-.905-15.487 2.526-29.765 11.602-48.289 7.297-14.892 24.35-41.709 26.107-41.056.58.216 17.096 13.545 36.703 29.62l35.648 29.227-5.664.387c-7.266.497-12.16-1.866-14.56-7.03-1.782-3.835-2.332-4.105-8.419-4.13-6.285-.027-6.54.11-7.307 3.943-2.114 10.57-.233 18.583 5.197 22.141 1.682 1.102 9.929 3.4 18.326 5.107 16.707 3.396 18.956 4.257 24.607 9.421 2.94 2.686 5.993 3.82 13.343 4.958 23.63 3.655 41.559 20.355 55.097 51.324 3.712 8.491 22.42 56.497 22.42 57.532 0 .157-3.193.684-7.095 1.172-12.414 1.55-26.957 7.534-36.747 15.12-2.795 2.165-15.766 13.58-28.824 25.365-27.597 24.906-29.452 26.371-40.432 31.928-7.31 3.7-20.537 8.322-23.812 8.322-.65 0-2.085-5.52-3.187-12.266zM582.513 723.326c-8.487-4.574-15.668-18.117-15.668-29.549v-7.766l10.216-11.02c27.591-29.76 46.041-66.06 57.594-113.316 8.251-33.748 11.875-73.882 9.725-107.701l-1.258-19.797 9.832-9.117c26.596-24.662 47.654-41.088 62.57-48.806 9.612-4.975 25.927-10.605 34.516-11.913l4.654-.708.927 12.292c1.225 16.26-.156 55.65-2.593 73.923-7.454 55.892-23.533 102.686-51.702 150.464-25.618 43.452-55.177 80.568-90.419 113.536-12.167 11.383-12.752 11.753-18.465 11.702-3.245-.03-7.713-1.03-9.929-2.224zM675.635 974.769c-11.678-3.238-25.076-9.995-35.122-17.712-4.523-3.474-21.702-19.374-38.175-35.333-26.691-25.858-31.936-31.645-48.183-53.16-10.027-13.28-29.679-38.441-43.671-55.914-48.138-60.111-70.179-91.138-92.928-130.81-21.372-37.273-20.357-34.704-20.357-51.544 0-11.914.535-16.162 2.896-22.993 3.34-9.663 11.12-22.785 22.236-37.504l7.78-10.302 6.067 1.601c7.878 2.078 13.503 5.628 19.877 12.543 6.732 7.303 9.158 12.272 22.927 46.95 6.344 15.978 13.331 31.85 15.527 35.272 2.195 3.42 7.87 9.81 12.61 14.2l8.618 7.979-4.37 2.864c-5.747 3.768-11.322 12.732-14.756 23.73-3.778 12.097-3.751 33.18.056 44.875 2.883 8.857 11.922 24.653 27.403 47.89 26.439 39.682 41.439 53.778 68.19 64.079 14.295 5.505 13.567 5.643 21.067-4.01l6.643-8.55 14.598 17.446c8.028 9.595 21.27 24.8 29.425 33.788 17.656 19.458 26.245 30.722 34.56 45.319 7.165 12.58 13.977 28.803 12.651 30.13-.504.504-6.744 1.069-13.865 1.255-9.678.253-15.16-.275-21.704-2.089z" fill="#f9f9f9"/>
  <path d="M598.571 809.546c-11.449-8.575-29.928-28.02-38.007-39.993-7.023-10.409-16.1-28.544-19.696-39.355-3.82-11.479-6.908-23.656-6-23.656 3.13 0 11.483 9.734 18.853 21.971 4.72 7.835 10.78 16.633 13.47 19.552 4.762 5.171 13.337 9.307 19.295 9.307 2.36 0 3.73 3.316 11.878 28.771 5.065 15.825 9.033 28.949 8.817 29.165-.216.216-4.09-2.377-8.61-5.762z" fill="#f9f9f9"/>
  <path d="M598.556 808.98c-3.813-3.015-8.02-6.71-9.352-8.213-1.332-1.502-3.047-2.77-3.812-2.819-1.402-.089-8.446-8.162-20.788-23.827-6.51-8.263-21.733-36.415-23.83-44.07-.573-2.097-1.161-4.242-1.306-4.766-.144-.524-.377-1.096-.518-1.27-.141-.175-.445-1.176-.676-2.224a1320.85 1320.85 0 00-1.852-8.111c-.788-3.413-1.214-6.424-.946-6.691 1.018-1.018 14.364 14.582 17.27 20.189 4.161 8.024 15.215 22.144 19.872 25.383 2.766 1.923 7.162 3.864 9.77 4.312 2.607.449 5.246 1.46 5.863 2.246 2.685 3.42 18.956 53.62 17.766 54.811-.292.292-3.65-1.936-7.461-4.95z" fill="#f9f9f9"/>
  <path d="M672.318 973.277c-3.844-1.363-7.136-2.458-7.316-2.431-1.123.164-14.651-7.35-19.69-10.937-3.322-2.365-6.25-4.299-6.505-4.299-.256 0-3.02-2.43-6.143-5.4-47.533-45.216-50.554-48.2-60.57-59.836-12.331-14.324-13.116-15.275-15.415-18.671-1.049-1.549-2.499-3.46-3.223-4.249-.725-.788-3.012-3.72-5.083-6.515-2.072-2.795-6.054-7.97-8.85-11.498-2.795-3.528-6.512-8.343-8.26-10.7-1.747-2.356-5.11-6.618-7.473-9.47-2.363-2.851-7.32-9.187-11.014-14.08-3.695-4.892-8.338-10.768-10.318-13.057-3.917-4.53-5.106-6.032-13.8-17.44-3.196-4.194-6.354-7.816-7.018-8.049-.664-.233-1.207-1.043-1.207-1.8 0-.756-.874-2.281-1.942-3.388-1.068-1.107-4.89-6.016-8.494-10.908-3.603-4.893-6.875-9.181-7.27-9.53-.396-.35-1.292-1.604-1.99-2.788-1.955-3.308-25.164-37.157-25.973-37.878-.392-.35-1.636-2.352-2.764-4.448-1.128-2.096-6.798-11.817-12.601-21.602-5.803-9.785-12.886-22.324-15.74-27.865-4.942-9.592-5.22-10.746-5.825-24.144-.543-12.026-.244-15.27 2.06-22.33 2.571-7.88 6.75-17.705 8.106-19.061.35-.35 3.495-4.907 6.99-10.127 3.494-5.22 8.477-12.184 11.074-15.474l4.721-5.982 6.716 2.45c3.694 1.348 8.265 3.593 10.159 4.99 1.893 1.397 3.895 2.562 4.447 2.59 1.513.074 8.536 10.033 12.263 17.387 1.811 3.575 5.643 12.398 8.515 19.606 2.872 7.209 5.586 13.688 6.031 14.4.446.711.933 1.865 1.083 2.564.55 2.558 7.809 19.282 11.793 27.17 2.49 4.93 7.725 11.835 13.353 17.61l9.258 9.501-5.666 5.666C497 694.99 491.616 715.11 494.249 737.38c1.552 13.128 6.138 23.43 20.603 46.28 30.165 47.647 51.112 68.565 78.754 78.644 10.937 3.987 13.068 3.787 17.144-1.606 5.64-7.463 10.725-12.633 10.731-10.91.005 1.207 12.979 17.489 16.48 20.682.384.35 3.839 4.353 7.679 8.896 3.84 4.543 7.553 8.887 8.252 9.653.699.766 4.701 5.326 8.895 10.133 4.194 4.808 9.483 10.671 11.755 13.03 2.271 2.36 4.13 4.8 4.13 5.423 0 .623 1.143 1.847 2.541 2.72 1.398.873 2.542 2.279 2.542 3.124 0 .846.715 1.995 1.59 2.554.875.559 2.396 2.579 3.38 4.49.984 1.91 2.727 4.483 3.873 5.718 3.326 3.585 17.842 33.495 17.842 36.763 0 2.955-.072 2.969-15.566 2.876-12.023-.071-17.158-.657-22.556-2.572zM573.542 957.417c-10.444-10.9-3.506-13.819 8.008-3.37 8.047 7.303 8.505 9.188 2.232 9.188-3.882 0-5.601-.977-10.24-5.818z" fill="red"/>
  <path d="M416.6 731.882c-6.083-3.212-9.11-8.876-7.976-14.923l.848-4.524 2.253 4.996c1.239 2.747 4.339 7.48 6.888 10.516 6.396 7.617 6.091 8.214-2.012 3.935z" fill="#f0f"/>
  <path d="M614.522 409.493c-.482-1.218-1.098-3.93-1.368-6.027-1.169-9.066-3.69-17.208-8.384-27.068-4.2-8.823-7.14-12.69-17.978-23.64-7.127-7.2-20.152-19.66-28.945-27.687-29.017-26.492-33.643-33.02-34.07-48.074-.352-12.462 1.896-18.515 11.474-30.886l7.702-9.946-1.493-5.93c-2.695-10.702-1.68-33.915 1.873-42.798 5.595-13.994 6.644-17.08 6.02-17.703-.397-.398-.022-.723.835-.723s1.204-.572.772-1.27c-.432-.7-.285-1.272.325-1.272.611 0 2.133-2.144 3.383-4.765 1.25-2.621 2.097-4.765 1.882-4.765-.215 0 .589-1.144 1.786-2.542s2.122-3.05 2.057-3.67c-.066-.62.4-1.479 1.034-1.906.634-.428 3.773-4.855 6.974-9.84 3.202-4.983 6.406-9.422 7.12-9.864 1.374-.849 7.844 1.613 7.844 2.985 0 .443 3.002 3.067 6.671 5.832 3.67 2.764 7.815 6.085 9.213 7.38 1.398 1.294 4.543 3.867 6.988 5.718 2.446 1.85 5.591 4.424 6.99 5.718 1.398 1.295 4.543 3.868 6.989 5.719 2.445 1.85 5.59 4.424 6.989 5.718 1.398 1.295 4.525 3.868 6.948 5.719 2.423 1.85 5.36 4.301 6.528 5.445 1.167 1.144 3.188 2.707 4.49 3.472 2.055 1.207 2.116 1.565.46 2.711-3.639 2.523-10.534.208-15.283-5.13-3.874-4.356-5.204-5.04-9.804-5.04-6.484 0-7.952 2.128-7.952 11.522 0 4.364.853 7.985 2.516 10.676 2.703 4.373 6.633 5.878 27.343 10.472 6.985 1.55 12.349 3.71 17.155 6.91 3.846 2.562 9.154 4.997 11.796 5.412 19.608 3.079 36.47 14.387 47.59 31.918 4.23 6.666 16.788 33.094 17.574 36.98.158.785 1.13 3.358 2.158 5.718s2.873 6.865 4.1 10.01c3.775 9.676 4.727 11.996 5.8 14.14.57 1.137 1.425 4.139 1.9 6.671.796 4.245.627 4.604-2.163 4.604-5.755 0-22.068 5.254-30.295 9.758-6.745 3.692-15.755 10.71-27.44 21.376-.766.699-5.612 4.987-10.768 9.53-5.157 4.543-11.905 10.548-14.996 13.343a6623.117 6623.117 0 01-8.444 7.625c-7.111 6.402-26.766 16.251-37.657 18.87-2.512.604-3.584.248-4.24-1.406zM668.505 971.08c-16.371-5.923-29.305-15.587-59.166-44.208-30.91-29.628-40.052-40.06-78.372-89.442-14.915-19.22-32.243-41.364-38.508-49.207-36.19-45.31-67.84-92.956-88.056-132.557l-5.537-10.847-.198-15.204c-.192-14.716-.055-15.55 4.278-26.005 4.113-9.922 22.206-37.714 27.312-41.951 1.696-1.408 3.615-.846 12.5 3.66 14.863 7.536 16.808 10.631 36.339 57.84 11.282 27.271 14.365 32.804 24.824 44.56l9.368 10.53-5.062 4.933c-10.681 10.41-16.007 28.237-14.738 49.333 1.043 17.336 4.564 25.723 22.973 54.72 28.435 44.786 50.76 66.514 78.337 76.244 9.615 3.393 11.813 2.738 19.157-5.705l6.62-7.613 4.586 6.104c4.662 6.206 18.275 22.095 38.896 45.399 16.083 18.176 17.01 19.315 24.402 30.01 7.249 10.487 20.71 36.904 20.71 40.644 0 2.167-1.236 2.348-15.567 2.282-13.636-.062-16.75-.499-25.098-3.52z" fill="#fff"/>
  <path d="M614.633 409.403c-.452-.733-1.141-3.798-1.53-6.812-1.225-9.48-3.082-15.318-8.412-26.447-5.62-11.731-7.762-14.045-55.29-59.705-11.264-10.822-20.437-19.971-20.384-20.332.054-.36-.935-2.943-2.197-5.739-2.85-6.315-3.262-22.238-.74-28.592.972-2.446 5.13-9.149 9.242-14.895 7.343-10.262 7.46-10.56 6.628-16.837-.466-3.515-1.211-6.39-1.655-6.39-.82 0 .442-24.687 1.559-30.499.335-1.747 1.807-5.94 3.27-9.318 1.463-3.378 2.66-6.814 2.66-7.636 0-3.015 11.487-23.886 19.292-35.05 8.771-12.548 11.1-13.766 16.433-8.593 1.668 1.618 7.312 6.336 12.542 10.484 5.23 4.149 10.948 8.764 12.707 10.256 1.76 1.492 10.633 8.837 19.719 16.322 9.085 7.486 16.687 14.057 16.89 14.604.205.546-.367 1.26-1.27 1.585-3.179 1.144-9.354-1.515-13.734-5.916-3.66-3.676-5.37-4.455-9.86-4.488-4.68-.035-5.604.411-6.672 3.22-1.824 4.798-1.508 14.137.618 18.248 2.192 4.24 6.587 6.158 24.829 10.84 7.736 1.986 16.013 5.067 19.697 7.334 3.494 2.15 10.497 4.947 15.562 6.216 14.67 3.676 22.776 8.26 33.387 18.879 7.457 7.461 10.995 12.353 16.107 22.27 7.594 14.732 25.366 58.238 26.004 63.66.368 3.125-.052 3.75-2.743 4.084-7.667.953-24.157 6.879-31.46 11.306-7.344 4.452-44.25 35.716-55.823 47.29-4.1 4.1-29.414 18.97-34.074 20.016-7.039 1.58-10.594 1.78-11.302.635z" fill="#f0f"/>
</svg>
