<?xml version="1.0" encoding="UTF-8" standalone="no"?>
<svg
   xmlns:dc="http://purl.org/dc/elements/1.1/"
   xmlns:cc="http://creativecommons.org/ns#"
   xmlns:rdf="http://www.w3.org/1999/02/22-rdf-syntax-ns#"
   xmlns:svg="http://www.w3.org/2000/svg"
   xmlns="http://www.w3.org/2000/svg"
   xmlns:sodipodi="http://sodipodi.sourceforge.net/DTD/sodipodi-0.dtd"
   xmlns:inkscape="http://www.inkscape.org/namespaces/inkscape"
   version="1.1"
   width="816"
   height="1056"
   id="svg12"
   sodipodi:docname="logo-color.svg"
   inkscape:version="1.0.1 (3bc2e813f5, 2020-09-07, custom)">
  <metadata
     id="metadata18">
    <rdf:RDF>
      <cc:Work
         rdf:about="">
        <dc:format>image/svg+xml</dc:format>
        <dc:type
           rdf:resource="http://purl.org/dc/dcmitype/StillImage" />
        <dc:title></dc:title>
      </cc:Work>
    </rdf:RDF>
  </metadata>
  <defs
     id="defs16" />
  <sodipodi:namedview
     pagecolor="#ffffff"
     bordercolor="#666666"
     borderopacity="1"
     objecttolerance="10"
     gridtolerance="10"
     guidetolerance="10"
     inkscape:pageopacity="0"
     inkscape:pageshadow="2"
     inkscape:window-width="1920"
     inkscape:window-height="1051"
     id="namedview14"
     showgrid="false"
     inkscape:zoom="0.78693182"
     inkscape:cx="408"
     inkscape:cy="522.28159"
     inkscape:window-x="0"
     inkscape:window-y="29"
     inkscape:window-maximized="0"
     inkscape:current-layer="svg12" />
  <g
     id="Layer_1">
    <path
       id="dp_path001"
       transform="matrix(1,0,0,1,-30.8413,816.781)"
       fill="black"
       stroke="black"
       stroke-width="2.66667"
       d="M 606.813,-717.451 C 589.064,-730.509 569.933,-738.787 549.517,-742.281 C 529.192,-745.685 508.131,-747.248 486.517,-746.696 L 441.361,-746.696 C 435.843,-753.779 430.324,-758.744 424.715,-761.504 C 419.012,-764.263 413.219,-765.643 407.148,-765.459 C 396.572,-765.091 385.812,-762.607 375.051,-758.192 C 364.291,-753.779 354.357,-749.915 345.437,-746.696 C 344.333,-747.248 343.229,-747.616 342.217,-747.708 C 341.299,-747.8 340.471,-747.892 339.919,-747.8 C 327.503,-746.604 314.811,-741.455 302.027,-732.625 C 289.152,-723.704 277.931,-718.645 268.275,-717.451 C 262.664,-717.267 258.065,-719.473 254.295,-723.98 C 250.524,-728.487 247.857,-736.028 246.201,-746.696 C 243.995,-747.8 242.063,-748.444 240.224,-748.628 C 238.476,-748.904 236.821,-748.996 235.165,-748.904 C 225.417,-748.26 216.772,-744.765 209.139,-738.511 C 201.413,-732.349 193.596,-727.475 185.503,-724.072 C 183.387,-726.647 181.916,-728.671 181.272,-730.049 C 180.628,-731.521 180.536,-733.545 181.088,-736.12 L 144.116,-735.66 C 140.713,-722.876 133.908,-714.507 123.883,-710.644 C 113.859,-706.781 103.557,-703.011 92.9813,-699.424 C 82.312,-695.837 74.3107,-688.204 69.0693,-676.432 C 68.7933,-672.937 71.552,-667.419 77.3467,-659.693 C 83.14,-651.968 93.6253,-649.485 108.8,-652.152 C 113.031,-638.816 119.008,-627.596 126.825,-618.399 C 134.643,-609.295 144.3,-602.488 155.888,-597.981 C 142.368,-565.793 129.677,-531.212 117.629,-494.148 C 105.673,-457.085 99.3267,-418.917 98.4987,-379.463 C 98.4987,-369.531 99.0507,-359.413 100.155,-349.021 C 101.259,-338.628 102.913,-328.236 105.121,-317.66 C 112.387,-250.613 134.551,-194.144 171.523,-148.436 C 208.587,-102.727 253.376,-69.7107 305.799,-49.4773 C 319.685,-47.6373 333.94,-45.7987 348.564,-43.7747 C 363.187,-41.844 377.993,-40.74 392.985,-40.648 C 407.332,-40.556 421.588,-42.0267 435.567,-45.1547 C 449.547,-48.2813 462.881,-53.432 475.665,-60.5133 C 494.887,-31.6347 515.396,-3.768 537.193,23.1787 C 558.897,50.1253 582.165,77.992 606.997,106.779 L 587.04,117.816 L 585.936,135.381 C 585.845,137.681 586.212,139.98 587.04,142.279 C 587.776,144.579 589.248,146.325 591.455,147.521 C 594.857,149.361 597.433,152.856 599.088,158.281 C 600.744,163.616 604.055,166.651 609.205,167.387 C 610.308,167.387 611.412,167.295 612.7,167.111 C 613.895,166.835 615.367,166.191 617.023,165.18 C 621.621,167.295 625.392,166.651 628.519,163.248 C 631.553,159.845 636.244,150.924 642.497,136.485 C 651.971,146.233 662.823,154.051 674.963,160.213 C 687.103,166.283 699.427,172.077 711.751,177.32 C 714.141,176.86 718.74,176.768 725.639,176.952 C 732.536,177.136 737.503,177.32 740.445,177.32 C 746.607,177.596 751.757,176.308 755.896,173.457 C 760.035,170.697 762.241,164.904 762.333,156.351 C 763.161,154.143 755.804,139.52 740.537,112.573 C 725.179,85.6267 697.22,49.5747 656.569,4.50933 C 656.017,-8.91867 652.799,-21.1507 646.912,-32.0027 C 641.027,-42.8547 635.876,-54.1667 631.461,-66.0307 C 635.14,-69.8027 638.543,-73.9413 641.395,-78.4467 C 644.337,-83.0453 647.556,-85.5293 651.235,-85.8973 C 652.247,-85.988 653.167,-85.8973 653.901,-85.8053 C 654.637,-85.7133 655.557,-85.3453 656.569,-84.7933 C 681.033,-113.856 704.209,-144.297 726.189,-176.211 C 748.171,-208.032 766.196,-242.06 780.176,-278.112 C 794.247,-314.164 801.421,-352.976 801.88,-394.453 C 801.88,-403.927 801.421,-413.768 800.409,-424.068 C 799.489,-434.368 798.201,-444.761 796.547,-455.337 L 811.813,-467.201 C 791.58,-522.291 764.265,-570.667 729.868,-612.329 C 695.472,-653.991 654.453,-685.353 606.813,-706.413 Z M 199.941,-318.211 C 196.999,-323.913 194.423,-330.167 192.308,-336.697 C 190.192,-343.319 186.513,-348.929 181.364,-353.62 C 180.904,-351.872 180.536,-350.216 180.444,-348.561 C 180.352,-346.905 180.26,-345.251 180.352,-343.595 C 181.824,-326.304 188.905,-310.117 201.597,-294.943 C 214.288,-279.86 223.577,-263.673 229.556,-246.291 C 236.177,-205.641 249.697,-173.636 269.931,-150.091 C 290.163,-126.639 313.524,-106.681 340.103,-90.4027 C 338.447,-88.748 337.344,-86.632 336.7,-84.0573 C 336.056,-81.4827 335.688,-78.8147 335.78,-76.056 C 335.78,-73.8493 335.964,-70.1693 336.148,-65.112 C 336.332,-60.0533 336.24,-56.6507 335.78,-54.9947 C 305.981,-60.6053 276.368,-74.308 246.937,-96.1053 C 217.508,-117.903 191.848,-145.493 169.868,-178.693 C 147.979,-211.987 133.356,-248.499 126.089,-288.321 C 121.768,-302.76 118.64,-317.384 116.709,-332.191 C 114.869,-346.997 113.859,-361.805 113.951,-376.796 C 114.685,-427.563 123.423,-475.847 140.345,-521.648 C 157.176,-567.448 177.777,-606.995 202.148,-640.196 C 230.291,-673.305 262.664,-699.056 299.36,-717.635 C 335.964,-736.12 376.339,-744.029 420.392,-741.363 L 430.324,-729.591 C 433.636,-729.039 436.855,-728.671 440.073,-728.579 C 443.292,-728.487 446.235,-728.395 449.087,-728.487 C 454.052,-728.671 464.169,-729.591 479.62,-731.245 C 495.071,-732.809 509.143,-733.729 521.835,-734.004 C 533.515,-734.096 544.919,-732.165 556.047,-728.027 C 567.175,-723.888 577.476,-716.715 586.948,-706.413 C 585.017,-693.539 579.683,-681.767 571.037,-670.821 C 562.3,-659.969 556.139,-647.553 552.46,-633.575 C 553.012,-630.355 553.472,-627.044 553.931,-623.733 C 554.391,-620.331 554.575,-616.836 554.667,-613.157 C 554.115,-596.235 550.712,-580.048 544.551,-564.505 C 538.296,-549.055 532.503,-532.316 526.984,-514.381 C 501.417,-528.821 474.285,-538.017 445.592,-541.88 C 416.805,-545.652 387.191,-546.847 356.657,-545.284 C 350.127,-549.699 343.597,-554.572 337.068,-559.907 C 330.537,-565.241 323.456,-568.184 315.731,-568.644 C 313.524,-568.736 311.132,-568.368 308.465,-567.54 C 305.799,-566.804 303.039,-565.241 300.28,-563.125 C 305.431,-557.883 311.224,-554.388 317.571,-552.549 C 323.916,-550.617 329.985,-548.227 335.688,-545.284 C 334.86,-534.983 329.895,-528.269 320.789,-525.327 C 311.592,-522.291 303.315,-518.612 295.865,-514.381 C 282.897,-496.632 270.113,-478.605 257.607,-460.304 C 245.007,-442.093 230.935,-424.528 215.208,-407.881 Z M 646.912,-639.092 C 646.36,-637.437 645.9,-635.781 645.441,-634.125 C 644.981,-632.471 644.797,-630.815 644.797,-629.16 C 645.165,-621.343 648.752,-616.56 655.465,-614.812 C 662.179,-613.157 669.721,-611.593 677.905,-610.305 C 686.091,-609.111 692.621,-605.156 697.404,-598.717 C 716.625,-598.073 731.524,-591.452 742.192,-578.668 C 752.861,-565.976 761.415,-550.801 767.852,-533.328 C 774.197,-515.761 780.544,-499.575 786.797,-484.584 L 783.487,-484.584 C 765.185,-483.664 748.999,-477.043 735.019,-464.535 C 720.948,-452.027 706.784,-439.243 692.529,-426.091 C 678.273,-413.032 661.536,-405.123 642.405,-402.363 L 642.405,-407.881 C 641.303,-428.759 633.393,-446.324 618.677,-460.672 C 603.963,-474.927 589.248,-488.263 574.624,-500.587 C 559.909,-512.819 552,-526.337 550.804,-541.145 C 550.712,-546.663 552.276,-552.825 555.495,-559.447 C 558.713,-566.068 564.14,-573.335 571.773,-581.06 C 570.209,-584.555 569.015,-588.233 568.371,-592.188 C 567.727,-596.143 567.359,-599.821 567.359,-603.224 C 568.003,-620.331 572.601,-636.793 581.063,-652.612 C 589.524,-668.339 598.26,-681.857 607.181,-693.171 L 685.264,-629.16 C 684.16,-629.16 682.596,-628.976 680.481,-628.608 C 678.365,-628.332 675.975,-628.148 673.124,-628.056 C 669.629,-627.964 666.225,-628.7 662.823,-630.263 C 659.42,-631.827 657.397,-634.769 656.569,-639.092 Z M 595.869,-132.249 C 623.184,-158 643.141,-189.731 655.557,-227.437 C 668.065,-265.145 674.227,-303.864 674.043,-343.411 C 674.043,-350.124 673.768,-356.931 673.308,-363.736 C 672.94,-370.633 672.388,-377.164 671.836,-383.325 C 690.781,-401.995 709.268,-417.997 727.293,-431.333 C 745.32,-444.669 765.185,-452.671 786.889,-455.337 C 787.993,-448.164 788.637,-441.175 788.913,-434.276 C 789.097,-427.379 789.189,-420.389 789.189,-413.216 C 787.809,-344.791 771.991,-283.171 741.549,-228.357 C 711.199,-173.636 674.411,-127.559 631.093,-90.2187 C 629.439,-89.76 627.783,-89.392 626.219,-89.3 C 624.748,-89.208 623.368,-89.116 622.264,-89.116 C 615.827,-89.208 610.584,-91.3227 606.629,-95.6453 C 602.583,-99.968 598.996,-106.313 595.869,-114.591 Z M 650.867,-377.716 C 653.627,-367.783 655.557,-358.033 656.753,-348.561 C 658.04,-338.996 658.592,-329.524 658.592,-320.143 C 658.224,-286.941 651.511,-255.856 638.543,-227.161 C 625.484,-198.467 608.285,-172.624 587.04,-149.816 C 580.695,-149.999 576.556,-149.724 574.716,-149.172 C 572.969,-148.62 571.865,-146.964 571.589,-144.389 C 556.231,-150.551 544.735,-163.979 537.285,-184.856 C 529.744,-205.641 521.283,-225.691 511.717,-244.912 C 502.244,-264.225 486.885,-274.525 465.641,-275.813 L 460.123,-275.813 C 444.028,-263.029 430.6,-247.763 419.656,-230.012 C 408.804,-212.263 404.481,-190.097 406.596,-163.427 L 430.232,-120.293 C 429.221,-121.029 428.117,-121.029 426.921,-120.477 C 425.727,-119.925 423.519,-117.993 420.392,-114.775 L 420.392,-97.1173 C 382.132,-99.324 350.127,-107.693 324.192,-122.408 C 298.348,-137.124 275.908,-161.772 257.055,-196.536 C 253.652,-221.46 247.029,-245.74 237.189,-269.376 C 227.44,-292.92 221.923,-318.303 220.635,-345.527 C 220.635,-350.492 220.911,-355.643 221.463,-361.069 C 222.013,-366.495 222.841,-372.013 223.945,-377.532 C 235.625,-395.741 248.041,-415.607 261.193,-437.128 C 274.344,-458.556 288.6,-477.961 304.051,-495.252 C 319.501,-512.543 336.608,-524.039 355.277,-529.833 C 384.708,-530.016 414.321,-528.269 444.304,-524.591 C 474.285,-520.912 503.348,-507.576 531.675,-484.584 C 532.779,-488.907 534.157,-492.033 535.721,-493.964 C 537.193,-495.804 538.848,-496.724 540.504,-496.724 C 544.919,-496.172 549.333,-494.148 553.656,-490.653 C 557.885,-487.067 562.024,-485.044 565.887,-484.584 C 583.361,-467.845 597.801,-449.084 609.113,-428.299 C 620.333,-407.421 632.841,-388.66 646.452,-372.013 Z M 650.867,28.4213 C 667.697,49.7587 685.356,70.2667 703.749,89.9493 C 722.143,109.539 736.215,132.807 745.963,159.661 C 742.56,160.765 739.065,161.593 735.387,162.144 C 731.8,162.696 728.305,162.972 724.903,162.972 C 700.439,161.501 678.365,151.384 658.868,132.715 C 639.371,114.044 620.149,95.4667 601.204,76.9813 C 578.211,45.712 557.151,18.488 538.02,-4.872 C 518.891,-28.232 500.589,-51.96 483.207,-76.148 C 465.825,-100.336 448.167,-129.399 430.324,-163.151 C 428.209,-167.013 426.737,-170.876 425.909,-174.923 C 425.175,-178.877 424.807,-183.108 424.807,-187.431 C 425.451,-202.053 429.681,-215.573 437.499,-227.989 C 445.316,-240.497 452.857,-250.981 460.123,-259.443 C 477.689,-256.96 490.104,-247.579 497.555,-231.3 C 504.912,-215.113 511.901,-197.824 518.523,-179.429 C 525.237,-161.128 536.273,-147.608 551.632,-138.963 C 542.895,-135.376 536.365,-129.031 532.319,-119.925 C 528.18,-110.82 526.156,-100.704 526.248,-89.392 C 526.248,-84.8853 526.708,-80.1027 527.72,-75.044 C 528.732,-69.9853 530.019,-65.204 531.767,-60.6973 C 545.929,-35.7733 560.645,-13.2413 575.912,6.9 C 591.179,26.9493 611.412,40.4693 636.612,47.1827 Z M 411.931,-54.9947 C 412.207,-58.8573 411.379,-64.928 409.54,-73.2053 C 407.792,-81.5747 403.377,-86.264 396.48,-87.184 C 392.709,-86.724 387.375,-84.4253 380.569,-80.4707 C 373.764,-76.424 367.233,-73.9413 360.796,-72.8373 L 356.473,-95.8293 C 373.12,-94.7253 388.939,-91.2307 403.929,-85.2533 C 418.828,-79.2747 432.9,-71.0893 446.143,-60.5133 C 444.488,-58.3973 442.28,-56.9267 439.521,-56.0987 C 436.763,-55.3627 433.452,-54.9947 429.589,-54.9947 Z M 361.164,-54.9947 C 365.395,-56.0987 369.349,-58.3053 372.844,-61.6173 C 376.431,-64.928 380.661,-66.8587 385.444,-67.3187 C 386.455,-67.3187 387.375,-67.2267 388.203,-67.1347 C 388.939,-67.0427 389.859,-66.6747 390.961,-66.2147 C 388.663,-61.3413 385.72,-58.2133 382.132,-56.8347 C 378.453,-55.4547 374.407,-54.9027 369.992,-54.9947 Z M 642.589,4.32533 C 621.988,-8.18267 604.883,-24.1853 591.087,-43.5907 C 577.292,-62.996 567.635,-86.632 562.024,-114.499 C 570.761,-111.096 577.476,-105.119 582.073,-96.6573 C 586.764,-88.196 591.731,-80.1947 597.065,-72.7453 C 602.399,-65.204 610.584,-61.2493 621.621,-60.7893 Z M 250.8,-711.84 C 240.776,-700.62 231.855,-690.043 224.037,-680.295 C 216.22,-670.453 206.747,-663.004 195.619,-657.763 C 192.308,-659.417 190.008,-661.073 188.721,-662.728 C 187.341,-664.384 186.697,-666.039 186.789,-667.695 C 187.157,-672.109 188.813,-676.524 191.756,-680.939 C 194.607,-685.353 196.263,-689.768 196.723,-694.181 C 196.815,-695.837 196.355,-697.585 195.435,-699.424 C 194.607,-701.356 192.768,-703.655 190.1,-706.321 C 198.285,-707.517 205.92,-712.116 213.001,-720.117 C 220.083,-728.211 227.164,-732.809 234.245,-734.004 C 237.005,-734.004 239.764,-732.257 242.523,-728.763 C 245.283,-725.176 248.041,-719.565 250.8,-711.84 Z M 84.52,-669.901 C 88.5667,-682.593 95.74,-689.768 106.224,-691.423 C 116.617,-693.079 126.089,-695.837 134.551,-699.7 L 139.885,-676.616 C 146.875,-668.431 154.692,-663.004 163.337,-660.337 C 171.983,-657.671 179.248,-650.588 185.135,-639.092 C 183.847,-632.747 180.536,-627.136 175.201,-622.261 C 169.776,-617.296 166.464,-611.133 165.269,-603.776 C 160.487,-608.191 156.164,-613.617 152.301,-619.871 C 148.347,-626.124 143.472,-629.62 137.679,-630.263 C 136.483,-630.171 135.195,-629.987 133.816,-629.528 C 132.344,-629.068 131.056,-628.608 129.953,-628.056 C 132.16,-633.575 133.264,-637.988 133.264,-641.3 C 132.252,-650.864 127.101,-656.751 117.721,-658.957 C 108.432,-661.073 101.075,-664.752 95.556,-669.993 Z M 181.272,-693.171 C 179.156,-690.503 175.753,-687.56 170.971,-684.341 C 166.188,-681.123 161.039,-680.387 155.336,-682.133 C 155.52,-686.64 157.084,-690.503 160.119,-693.723 C 163.245,-696.849 166.74,-698.504 170.787,-698.688 C 172.811,-698.688 174.741,-698.32 176.673,-697.585 C 178.604,-696.757 180.076,-695.285 181.272,-693.171 Z M 150.369,-723.888 L 170.235,-723.888 L 155.888,-711.748 Z M 466.56,-72.7453 C 461.043,-75.78 454.788,-78.9987 447.983,-82.2173 C 441.177,-85.4373 437.407,-90.0347 436.763,-95.9213 C 436.763,-97.5773 437.131,-99.692 437.775,-102.083 C 438.417,-104.475 439.613,-106.865 441.177,-109.165 C 443.108,-101.624 446.511,-95.0933 451.385,-89.668 C 456.352,-84.2413 461.411,-78.5387 466.56,-72.7453 Z M 540.596,-95.9213 C 548.045,-68.9747 560.553,-45.7987 578.027,-26.392 C 595.593,-6.89467 613.252,9.66 631.185,23.2707 C 610.584,17.5693 593.847,6.164 580.787,-11.0333 C 567.819,-28.232 556.231,-46.5333 546.113,-66.1227 Z M 621.253,147.981 C 615.091,150.004 609.757,149.085 605.251,145.407 C 600.744,141.728 597.617,136.669 595.869,130.323 C 596.881,130.231 597.801,129.864 598.628,129.22 C 599.364,128.576 600.284,128.208 601.388,128.116 C 605.619,128.576 609.205,130.507 612.148,134.093 C 614.999,137.681 618.033,140.44 621.253,142.463 Z " />
  </g>
  <path
     style="fill:#f9f9f9;stroke-width:1.27076"
     d="M 291.09025,756.24844 C 234.32273,739.74358 180.12968,696.59556 140.8768,636.64982 118.89021,603.07263 108.54162,577.00107 95.480545,522.28159 87.143993,487.35553 85.869236,476.38107 85.959888,440.31769 86.12445,374.85113 98.425433,320.83195 127.87957,256.22942 c 22.03362,-48.32692 45.76505,-83.23116 73.1656,-107.61214 54.5945,-48.57812 107.62099,-70.926482 169.29082,-71.348725 l 17.70692,-0.121237 5.29117,6.099146 5.29116,6.099147 10.0881,0.555319 c 5.54846,0.305425 22.67207,-0.640659 38.05246,-2.102409 36.00235,-3.421658 54.25711,-3.46289 67.20338,-0.151793 12.08748,3.091457 24.76305,9.630432 33.52346,17.293832 5.75697,5.03606 6.53512,6.26505 5.83023,9.20815 -2.19783,9.17652 -6.61493,18.10338 -15.68549,31.69997 -5.46786,8.19622 -11.51266,18.61919 -13.43288,23.16215 -3.61827,8.56028 -3.77256,10.18364 -3.14035,33.03971 0.46015,16.6347 -2.54006,31.10558 -11.32888,54.6426 -4.04517,10.83321 -8.93975,24.5574 -10.87684,30.4982 -1.93708,5.94079 -3.68311,10.99274 -3.88006,11.22655 -0.19694,0.23382 -4.83681,-1.70117 -10.31083,-4.29996 -37.40386,-17.75748 -65.05122,-23.21839 -123.05021,-24.30489 l -35.58123,-0.66653 -11.61393,-8.77747 c -15.42771,-11.65982 -21.43958,-14.25853 -31.50326,-13.61773 -5.5784,0.35521 -9.01417,1.34745 -11.98118,3.46015 l -4.15991,2.96211 2.92155,3.10985 c 4.38846,4.67131 9.45097,7.44048 21.71552,11.87833 11.71774,4.23996 12.46037,5.12781 9.32678,11.15045 -2.89214,5.55863 -7.09249,8.48275 -18.54672,12.9115 -18.76453,7.25526 -16.54294,4.87134 -52.74545,56.5994 -14.85077,21.21957 -21.71113,30.11331 -36.26827,47.01806 l -10.94284,12.70758 -6.86694,40.87372 c -3.77681,22.48053 -7.24031,40.64294 -7.69667,40.3609 -0.45635,-0.28204 -2.13571,-4.21213 -3.7319,-8.73353 -2.80481,-7.94497 -10.46075,-19.70595 -13.46641,-20.68697 -2.09851,-0.68495 -3.41028,8.73274 -2.37288,17.03582 1.90087,15.21402 9.44877,31.57829 21.35482,46.29838 16.10998,19.91766 25.01695,37.64082 29.45904,58.61786 6.18654,29.21493 15.35098,52.53421 28.28814,71.98028 13.06599,19.63972 43.8582,49.04805 69.86904,66.72896 8.42076,5.72402 9.03312,6.43689 7.64124,8.8953 -0.96419,1.70298 -1.41544,7.62869 -1.24379,16.33325 0.14815,7.51335 0.13909,13.62578 -0.0201,13.58316 -0.15922,-0.0426 -5.72199,-1.65697 -12.3617,-3.58743 z"
     id="path20" />
  <path
     style="fill:#f9f9f9;stroke-width:1.27076"
     d="m 612.27855,399.45968 c -3.16724,-19.38058 -9.44477,-30.74197 -26.26972,-47.54427 -7.39511,-7.38515 -18.87814,-18.17465 -25.51786,-23.97666 -31.50458,-27.52976 -37.52338,-36.11941 -37.44308,-53.43648 0.0525,-11.31719 3.00708,-18.02845 13.47406,-30.60581 6.34204,-7.62074 6.53088,-8.06802 5.00616,-11.85743 -0.87146,-2.16587 -1.8851,-9.08452 -2.25251,-15.37477 -0.90459,-15.48702 2.52606,-29.76508 11.60256,-48.28881 7.29711,-14.89226 24.34945,-41.70924 26.10666,-41.05606 0.57971,0.21549 17.09594,13.54415 36.70275,29.61924 l 35.64875,29.22743 -5.664,0.3873 c -7.26665,0.49688 -12.16067,-1.86646 -14.56041,-7.03127 -1.78158,-3.83439 -2.33171,-4.10426 -8.41877,-4.12997 -6.28544,-0.0265 -6.54034,0.11104 -7.30686,3.94362 -2.11394,10.56972 -0.23289,18.58352 5.19718,22.14144 1.68199,1.10208 9.92829,3.40022 18.3251,5.10697 16.70794,3.39608 18.9561,4.25677 24.60769,9.42087 2.93995,2.68636 5.99307,3.82078 13.34296,4.95769 23.63062,3.65528 41.55862,20.35555 55.09715,51.32407 3.71212,8.49122 22.41909,56.49764 22.41909,57.53256 0,0.15671 -3.19235,0.68379 -7.09411,1.17128 -12.41397,1.55102 -26.95701,7.53477 -36.74704,15.11961 -2.79567,2.16594 -15.76668,13.58032 -28.82448,25.36528 -27.59697,24.90691 -29.45219,26.37196 -40.43184,31.92842 -7.31009,3.69942 -20.53654,8.3217 -23.81215,8.3217 -0.65051,0 -2.08478,-5.51968 -3.18728,-12.26595 z"
     id="path22" />
  <path
     style="fill:#f9f9f9;stroke-width:1.27076"
     d="m 582.51341,723.32579 c -8.48723,-4.57338 -15.66864,-18.11647 -15.66864,-29.54878 v -7.76599 l 10.21664,-11.01995 c 27.59089,-29.76028 46.04107,-66.06092 57.59403,-113.31598 8.25065,-33.7476 11.87461,-73.88243 9.72485,-107.70117 l -1.25842,-19.79664 9.83257,-9.11767 c 26.59538,-24.6617 47.6533,-41.08758 62.56903,-48.80592 9.61275,-4.97425 25.92734,-10.60471 34.5169,-11.91242 l 4.6541,-0.70855 0.92646,12.29194 c 1.22554,16.26014 -0.15625,55.65013 -2.59324,73.92372 -7.45379,55.89174 -23.53298,102.68596 -51.70153,150.46362 -25.61835,43.45217 -55.17677,80.56779 -90.41897,113.53638 -12.16768,11.38268 -12.75178,11.75282 -18.46541,11.70124 -3.24514,-0.0294 -7.71291,-1.03002 -9.92837,-2.22383 z"
     id="path24" />
  <path
     style="fill:#f9f9f9;stroke-width:1.27076"
     d="m 675.63508,974.76895 c -11.67771,-3.23812 -25.07576,-9.99466 -35.12227,-17.71187 -4.5232,-3.47449 -21.70204,-19.37452 -38.1752,-35.33338 -26.69098,-25.85769 -31.93565,-31.64426 -48.1822,-53.16052 -10.02706,-13.27943 -29.67936,-38.44044 -43.67178,-55.91336 -48.13735,-60.11114 -70.17864,-91.13787 -92.92729,-130.81045 -21.37236,-37.27238 -20.35778,-34.70361 -20.35778,-51.54334 0,-11.91356 0.53525,-16.16198 2.89686,-22.99316 3.3405,-9.66271 11.12033,-22.78475 22.23525,-37.50362 l 7.77941,-10.30184 6.06808,1.60073 c 7.87735,2.078 13.50309,5.62799 19.87706,12.54292 6.73178,7.30312 9.1581,12.27175 22.92716,46.9502 6.34401,15.97789 13.33083,31.84994 15.52626,35.27124 2.19544,3.42129 7.87003,9.81126 12.61021,14.19994 l 8.61851,7.97941 -4.3697,2.8644 c -5.74791,3.76785 -11.32226,12.73168 -14.75647,23.72913 -3.77779,12.09769 -3.75167,33.18065 0.0556,44.87588 2.88319,8.85664 11.92227,24.65303 27.40352,47.88946 26.43828,39.68232 41.43837,53.77823 68.18961,64.07928 14.29543,5.5047 13.56746,5.64326 21.06684,-4.0094 l 6.64353,-8.55104 14.59726,17.44635 c 8.02848,9.59551 21.26997,24.80023 29.42553,33.78829 17.65593,19.45819 26.2453,30.7215 34.55993,45.3187 7.16524,12.57931 13.97738,28.80296 12.651,30.12933 -0.50426,0.50428 -6.74374,1.0693 -13.86548,1.2556 -9.67784,0.25319 -15.1601,-0.27446 -21.70346,-2.08888 z"
     id="path26" />
  <path
     style="fill:#f9f9f9;stroke-width:1.27076"
     d="m 598.57106,809.54581 c -11.44874,-8.57469 -29.92759,-28.01899 -38.00663,-39.99231 -7.02358,-10.40911 -16.09994,-28.54418 -19.6969,-39.35547 -3.81901,-11.47872 -6.90782,-23.65651 -6.00029,-23.65651 3.12994,0 11.48352,9.73475 18.85423,21.97157 4.71917,7.83477 10.78011,16.63317 13.46875,19.552 4.76321,5.17103 13.33767,9.30675 19.29539,9.30675 2.36074,0 3.72963,3.3158 11.87804,28.77164 5.0654,15.82439 9.03315,28.94829 8.81724,29.1642 -0.21591,0.21591 -4.09034,-2.37693 -8.60983,-5.76187 z"
     id="path28" />
  <path
     style="fill:#f9f9f9;stroke-width:1.27076"
     d=""
     id="path32" />
  <path
     style="fill:#f9f9f9;stroke-width:1.27076"
     d="m 598.55556,808.97957 c -3.81206,-3.0145 -8.02036,-6.70999 -9.35179,-8.21219 -1.33143,-1.5022 -3.04695,-2.77088 -3.81227,-2.81928 -1.40169,-0.0886 -8.44538,-8.16215 -20.7878,-23.82706 -6.51045,-8.26303 -21.73221,-36.41499 -23.82891,-44.0705 -0.57426,-2.09675 -1.16221,-4.24115 -1.30656,-4.76534 -0.14435,-0.52419 -0.37769,-1.09603 -0.51853,-1.27076 -0.14084,-0.17473 -0.44496,-1.17545 -0.67583,-2.22383 -0.23086,-1.04837 -1.0643,-4.69826 -1.85208,-8.11086 -0.78777,-3.41259 -1.21347,-6.42357 -0.94598,-6.69106 1.01815,-1.01815 14.36412,14.58276 17.27076,20.18885 4.16061,8.02463 15.21433,22.14418 19.87158,25.38309 2.76543,1.92324 7.16167,3.86391 9.76941,4.31258 2.60775,0.44868 5.24648,1.45923 5.86386,2.24566 2.68495,3.42015 18.95592,53.62084 17.76538,54.81139 -0.29163,0.29162 -3.64918,-1.93619 -7.46124,-4.95069 z"
     id="path34" />
  <path
     style="fill:#ff0000;stroke-width:1.27076"
     d="m 672.31769,973.27727 c -3.84404,-1.3636 -7.13602,-2.45783 -7.31549,-2.43164 -1.12344,0.164 -14.65136,-7.34982 -19.69106,-10.93702 -3.32148,-2.36417 -6.2484,-4.2985 -6.50428,-4.2985 -0.25587,0 -3.02016,-2.43033 -6.14286,-5.40072 -47.5333,-45.21498 -50.55423,-48.19921 -60.57081,-59.83535 -12.33054,-14.32423 -13.11535,-15.27485 -15.41449,-18.67115 -1.04838,-1.54866 -2.4987,-3.46048 -3.22296,-4.24849 -0.72424,-0.78801 -3.01161,-3.71989 -5.08303,-6.51529 -2.07141,-2.79541 -6.05358,-7.96937 -8.84924,-11.49769 -2.79567,-3.52832 -6.51264,-8.34332 -8.25993,-10.69998 -1.74729,-2.35664 -5.11028,-6.61807 -7.47331,-9.46981 -2.36302,-2.85175 -7.31959,-9.18788 -11.01458,-14.08029 -3.695,-4.89242 -8.33779,-10.76805 -10.31731,-13.05694 -3.91725,-4.52948 -5.10633,-6.03219 -13.80099,-17.44126 -3.1958,-4.1935 -6.3536,-7.81516 -7.01734,-8.04813 -0.66374,-0.23298 -1.2068,-1.04277 -1.2068,-1.79955 0,-0.75676 -0.87386,-2.28167 -1.94191,-3.38868 -1.06805,-1.107 -4.89036,-6.01562 -8.49401,-10.90804 -3.60365,-4.89242 -6.87564,-9.18123 -7.27108,-9.53069 -0.39545,-0.34946 -1.29083,-1.60345 -1.98975,-2.78666 -1.95404,-3.30801 -25.16381,-37.15766 -25.97228,-37.87857 -0.3925,-0.34997 -1.63641,-2.35142 -2.76423,-4.44765 -1.12783,-2.09622 -6.79841,-11.81708 -12.6013,-21.60192 -5.80288,-9.78484 -12.88589,-22.32403 -15.74001,-27.86487 -4.94125,-9.59265 -5.2197,-10.74688 -5.8247,-24.1444 -0.54308,-12.02616 -0.24382,-15.27009 2.05999,-22.33008 2.57112,-7.87914 6.74967,-17.70497 8.10607,-19.06137 0.34946,-0.34946 3.49458,-4.90652 6.98917,-10.12681 3.49458,-5.22028 8.47828,-12.18332 11.07487,-15.4734 l 4.72108,-5.98198 6.71574,2.45018 c 3.69366,1.3476 8.26515,3.59295 10.15887,4.98965 1.89373,1.39671 3.89517,2.56177 4.44766,2.58903 1.51238,0.0746 8.53557,10.03338 12.26232,17.38775 1.81151,3.57486 5.64337,12.39762 8.51523,19.60613 2.87186,7.20851 5.58603,13.68838 6.0315,14.3997 0.44546,0.71133 0.9328,1.86516 1.08298,2.56408 0.54961,2.55775 7.80834,19.2825 11.79235,27.17057 2.48976,4.92956 7.72561,11.83449 13.35328,17.61001 l 9.25759,9.5008 -5.66596,5.66596 c -11.73534,11.73534 -17.1211,31.85552 -14.48804,54.12459 1.55232,13.12867 6.13855,23.43011 20.6038,46.27951 30.16426,47.64767 51.11122,68.56549 78.75389,78.64431 10.93633,3.9875 13.06787,3.78781 17.14401,-1.6061 5.63919,-7.46226 10.72463,-12.6323 10.73114,-10.90965 0.005,1.20732 12.97816,17.4891 16.48015,20.68245 0.38323,0.34946 3.83835,4.35235 7.67804,8.89531 3.8397,4.54296 7.55311,8.88688 8.25203,9.65316 0.69891,0.76627 4.7018,5.3264 8.8953,10.1336 4.19351,4.8072 9.48304,10.67064 11.75452,13.02987 2.27148,2.35923 4.12996,4.79932 4.12996,5.42243 0,0.6231 1.14368,1.84715 2.54152,2.72011 1.39783,0.87296 2.54151,2.279 2.54151,3.12452 0,0.84553 0.71573,1.99461 1.59052,2.55353 0.87479,0.55892 2.39585,2.57912 3.38015,4.48934 0.9843,1.91023 2.72695,4.48352 3.87255,5.71842 3.32594,3.58519 17.8427,33.49541 17.8427,36.76298 0,2.95581 -0.0726,2.96923 -15.56678,2.8768 -12.02256,-0.0717 -17.15808,-0.65732 -22.55596,-2.57211 z"
     id="path36" />
  <path
     style="fill:#ff0000;stroke-width:1.27076"
     d=""
     id="path38" />
  <path
     style="fill:#ff0000;stroke-width:1.27076"
     d="m 573.5421,957.4167 c -10.44362,-10.89957 -3.50612,-13.81856 8.00815,-3.36947 8.04668,7.30228 8.50464,9.18743 2.23192,9.18743 -3.88238,0 -5.60118,-0.97655 -10.24007,-5.81796 z"
     id="path40" />
  <path
     style="fill:#ff00ff;stroke-width:1.27076"
     d="m 416.60067,731.88198 c -6.0838,-3.21219 -9.11147,-8.87629 -7.97704,-14.9233 l 0.84855,-4.52319 2.25276,4.99525 c 1.23901,2.74739 4.33882,7.47968 6.88845,10.51621 6.39576,7.61711 6.09069,8.21356 -2.01272,3.93503 z"
     id="path42" />
  <path
     style="fill:#ffffff;stroke-width:1.27076"
     d="m 614.52176,409.49276 c -0.48224,-1.21813 -1.09792,-3.93031 -1.3682,-6.02706 -1.16855,-9.06537 -3.69031,-17.20736 -8.38361,-27.06807 -4.19938,-8.82302 -7.13983,-12.68937 -17.97827,-23.63948 -7.12676,-7.20019 -20.15176,-19.65928 -28.94445,-27.68685 -29.01749,-26.4925 -33.64356,-33.02012 -34.0697,-48.07405 -0.35278,-12.46226 1.89592,-18.51543 11.47392,-30.88607 l 7.70117,-9.94658 -1.49302,-5.92932 c -2.69481,-10.70207 -1.67889,-33.91495 1.87309,-42.79846 5.5953,-13.99385 6.64459,-17.07927 6.02055,-17.70331 -0.39747,-0.39747 -0.0218,-0.72268 0.83487,-0.72268 0.85665,0 1.20413,-0.57184 0.77218,-1.27076 -0.43196,-0.69891 -0.2857,-1.27076 0.32502,-1.27076 0.61072,0 2.13299,-2.1444 3.38283,-4.76534 1.24984,-2.62094 2.0967,-4.76534 1.88192,-4.76534 -0.21478,0 0.58874,-1.14368 1.7856,-2.54152 1.19686,-1.39783 2.12259,-3.04942 2.05718,-3.6702 -0.0654,-0.62077 0.40003,-1.47854 1.03432,-1.90614 0.63429,-0.42759 3.77267,-4.85519 6.97417,-9.8391 3.2015,-4.9839 6.40549,-9.42294 7.11998,-9.86452 1.3737,-0.84899 7.84331,1.61283 7.84331,2.98455 0,0.44311 3.00217,3.06757 6.67148,5.83212 3.66932,2.76456 7.81516,6.08548 9.213,7.37984 1.39783,1.29435 4.54249,3.86763 6.98813,5.71841 2.44564,1.85077 5.59077,4.42406 6.98917,5.71841 1.39841,1.29435 4.54353,3.86764 6.98917,5.71841 2.44564,1.85078 5.59077,4.42406 6.98917,5.71841 1.39841,1.29436 4.52513,3.86764 6.94828,5.71841 2.42315,1.85078 5.36079,4.30124 6.52809,5.44549 1.1673,1.14424 3.18761,2.70634 4.48958,3.47133 2.05506,1.20749 2.11586,1.56508 0.46108,2.71184 -3.63965,2.52225 -10.53503,0.20739 -15.28375,-5.13093 -3.87443,-4.35547 -5.20397,-5.03882 -9.80366,-5.03882 -6.4841,0 -7.9523,2.12707 -7.9523,11.52098 0,4.36482 0.85336,7.9858 2.51605,10.67608 2.7029,4.37339 6.63249,5.87838 27.34307,10.47209 6.98528,1.54937 12.34856,3.70995 17.15523,6.91093 3.84608,2.56127 9.15393,4.99622 11.79523,5.411 19.60856,3.07925 36.46979,14.38768 47.59129,31.91837 4.2287,6.66564 16.78755,33.09433 17.57279,36.97993 0.15864,0.78502 1.12978,3.3583 2.15808,5.71842 1.02831,2.36011 2.87353,6.8644 4.10051,10.00953 3.77476,9.67596 4.72648,11.99605 5.80019,14.13959 0.56957,1.13706 1.42426,4.13922 1.8993,6.67148 0.79629,4.24451 0.62739,4.60409 -2.16243,4.60409 -5.7552,0 -22.06819,5.25417 -30.29578,9.75782 -6.74488,3.69203 -15.75444,10.71051 -27.43987,21.37576 -0.76577,0.69891 -5.61125,4.98772 -10.76773,9.53068 -5.15649,4.54296 -11.90466,10.54729 -14.99593,13.34296 -3.09128,2.79567 -6.89096,6.22672 -8.44375,7.62455 -7.11178,6.40209 -26.76678,16.25117 -37.65766,18.87016 -2.51118,0.60388 -3.58401,0.24796 -4.23889,-1.40628 z"
     id="path44" />
  <path
     style="fill:#ffffff;stroke-width:1.27076"
     d="M 668.50542,971.08086 C 652.13359,965.15717 639.19986,955.49315 609.33922,926.87207 578.42816,897.24418 569.28725,886.81208 530.9671,837.4296 516.05246,818.20939 498.72385,796.06629 492.45908,788.22271 456.26967,742.91307 424.61881,695.26688 404.403,655.66591 l -5.53713,-10.84673 -0.19828,-15.20381 c -0.19192,-14.71616 -0.0547,-15.55027 4.27888,-26.00526 4.11284,-9.92252 22.20584,-37.71405 27.31131,-41.95122 1.69583,-1.40741 3.61545,-0.84542 12.50009,3.6595 14.86292,7.5362 16.80794,10.63207 36.33899,57.84042 11.28262,27.27114 14.36502,32.80411 24.82408,44.55975 l 9.36839,10.52976 -5.06214,4.9336 c -10.68158,10.41035 -16.00748,28.23736 -14.73849,49.33305 1.04286,17.33635 4.56398,25.72311 22.97373,54.71969 28.43469,44.78653 50.75905,66.5147 78.33665,76.24465 9.61509,3.3924 11.81273,2.73786 19.15663,-5.70561 l 6.62122,-7.61257 4.58519,6.1038 c 4.66228,6.20646 18.27515,22.09537 38.89564,45.39894 16.08371,18.17646 17.00967,19.31521 24.402,30.0095 7.24926,10.48731 20.70992,36.90476 20.70992,40.64463 0,2.16659 -1.23615,2.34784 -15.56679,2.28237 -13.63548,-0.0623 -16.74923,-0.49893 -25.09747,-3.51951 z"
     id="path46" />
  <path
     style="fill:#ff00ff;stroke-width:1.27076"
     d="m 614.63339,409.40286 c -0.45282,-0.73266 -1.14169,-3.79786 -1.53083,-6.81153 -1.22411,-9.48006 -3.08115,-15.31858 -8.41192,-26.44693 -5.61977,-11.73165 -7.76192,-14.0449 -55.28938,-59.7053 -11.26455,-10.82204 -20.43728,-19.9715 -20.38386,-20.33213 0.0534,-0.36064 -0.93521,-2.94307 -2.19698,-5.73874 -2.8501,-6.31488 -3.26196,-22.23804 -0.73956,-28.59206 0.97109,-2.44621 5.12961,-9.14896 9.24115,-14.895 7.34303,-10.26216 7.46052,-10.56064 6.62786,-16.83755 -0.46623,-3.5146 -1.21089,-6.39019 -1.6548,-6.39019 -0.81999,0 0.4415,-24.68652 1.55848,-30.4982 0.33582,-1.74729 1.80742,-5.94054 3.27021,-9.31834 1.4628,-3.3778 2.65963,-6.81389 2.65963,-7.63575 0,-3.01511 11.48783,-23.88648 19.29236,-35.05086 8.77155,-12.54769 11.0995,-13.76483 16.43327,-8.59192 1.66787,1.61756 7.31159,6.33525 12.54159,10.48375 5.23001,4.1485 10.94842,8.76363 12.70759,10.25585 1.75916,1.49222 10.63241,8.83735 19.71833,16.3225 9.08592,7.48515 16.68699,14.05661 16.89126,14.60323 0.20427,0.54663 -0.36758,1.25992 -1.27076,1.5851 -3.1789,1.14452 -9.35392,-1.51507 -13.7341,-5.9153 -3.65975,-3.6765 -5.37029,-4.45517 -9.86009,-4.48852 -4.67954,-0.0348 -5.60388,0.41127 -6.67148,3.21927 -1.82431,4.7983 -1.50803,14.13755 0.61801,18.24886 2.19212,4.23909 6.58686,6.15783 24.82861,10.84015 7.73646,1.98581 16.01272,5.06719 19.69675,7.33339 3.49458,2.14966 10.49768,4.94702 15.56244,6.21634 14.66953,3.67645 22.77567,8.26003 33.38702,18.87856 7.45686,7.46191 10.99493,12.35383 16.10673,22.27001 7.59455,14.73235 25.36613,58.2385 26.00414,63.66009 0.36783,3.12571 -0.0516,3.75045 -2.74264,4.08476 -7.66698,0.9525 -24.15782,6.87861 -31.45954,11.30524 -7.34446,4.45253 -44.2502,35.71677 -55.8242,47.29077 -4.10033,4.10033 -29.41354,18.9697 -34.07366,20.01539 -7.03906,1.5795 -10.59446,1.77929 -11.30163,0.63506 z"
     id="path48" />
</svg>
